<?xml version="1.0" encoding="utf-8"?>
<!-- Generator: Adobe Illustrator 26.3.1, SVG Export Plug-In . SVG Version: 6.00 Build 0)  -->
<svg version="1.1" id="Layer_1" xmlns="http://www.w3.org/2000/svg" xmlns:xlink="http://www.w3.org/1999/xlink" x="0px" y="0px"
	 viewBox="0 0 566.9 250.9" style="enable-background:new 0 0 566.9 250.9;" xml:space="preserve">
<style type="text/css">
	.st0{fill:#353535;}
</style>
<path class="st0" d="M99.5,156.8l-4.8-0.6c-3.3-9.8-1.7-15.7,1.6-31.3c3.4-15.6,2.3-23.6,0.5-30.7c-1.8-7.1,0.8-12.9,0.2-15.4
	c-0.3-1.6-0.1-3.2,0.6-4.7c0.5-1.1,1.7-1.5,2.8-1c0.5,0.2,0.9,0.6,1.1,1.1c4.6-7.4-4.6-9.9-4.6-9.9c-2.2,0.4-4.3,3.4-4.3,3.4
	c-2.9-0.6-5.8-0.4-8.6,0.5c-0.7-0.8-1.7-1.5-2.7-1.8c-3.8,0.9-7,3.4-8.8,6.9c1.5,1.8,3.6,3.1,5.8,3.8c2.7,1,2.6,5.8,2.6,5.8
	c-0.5,3.6-1.5,9.2-22.8,8.6c-15.1-0.4-20.4,7.1-22.2,11.5c-0.4,1-0.7,2-0.9,3.1c-0.1,0.7-0.2,1.4-0.4,2.1
	c-2.5,6.9-7.7,16.4-18.5,19.7c-0.2,0.1-0.3,0.3-0.3,0.5c0.1,0.2,0.2,0.3,0.4,0.3c5.2-0.6,13.1-2.7,17.5-10
	c-2.9,15.9-9.4,22.2-9.4,22.2c0.3,5.2-0.2,10.4-1.4,15.4c-6.4,0.7-12.7,2-18.9,3.8c43-8.2,91.5,5.6,91.5,5.6l5.2,1.5
	c1.4,0.4,2.9-0.4,3.3-1.8c0.1-0.2,0.1-0.5,0.1-0.8V162C104.1,159.4,102.1,157.1,99.5,156.8z M81.1,121.3c6.2-1,8.2-4.1,8.2-4.1
	c2.8,4.2-0.4,16.4-0.7,25.2c-0.1,4.3-0.6,8.6-1.4,12.9c-2.3-0.2-4.6-0.4-6.9-0.6c-1.1-3.7-1.8-7.6-2-11.5c-0.2-7.4,0.8-14.9,2.9-22
	H81.1z M27.9,155.4L27.9,155.4c1.6-18.3,16.9-33.6,16.9-33.6c1.5,11.1-8.1,18.1-8.1,18.1c1.8,4.7,2.5,9.7,1.9,14.7
	c-3.8,0.1-7.3,0.5-10.5,0.8H27.9z M44.1,154.2c-0.2-0.9-2.2-10.9,1.7-16.1s11.7-8.6,12-15.1c0.3-6.5,2.3-8.4,2.3-8.4
	c1.7,0.5,3.3,1.4,4.6,2.7c1.9,1.3,4,2.4,6.2,3.3c1.4,0.6,2.3,2,2.3,3.5c-0.6,10.1-0.7,20.2-0.1,30.3c-10.7-0.6-20.4-0.6-28.9-0.2
	H44.1z"/>
<polygon class="st0" points="120.2,89.6 129.5,89.6 129.5,148.5 136.1,144.1 136.1,89.6 145.3,89.6 145.3,86.6 120.2,86.6 "/>
<polygon class="st0" points="170.3,118.8 158.6,118.8 158.6,90.1 152.1,86.6 152.1,148.5 158.6,145.4 158.6,121.8 170.3,121.8 
	170.3,145.4 176.8,148.5 176.8,86.6 170.3,90.3 "/>
<polygon class="st0" points="207.7,145.5 195.7,145.5 195.7,121.8 206.3,121.8 206.3,118.8 195.7,118.8 195.7,89.6 207.1,89.6 
	208.9,86.6 189.2,86.6 189.2,148.5 210.3,148.5 "/>
<path class="st0" d="M247.1,86.2c-4.6,0-7.7,0.8-9.5,2.4c-1.8,1.6-2.8,4.6-2.8,8.8v40c0,4.2,0.9,7.2,2.8,8.7c1.9,1.6,5,2.3,9.5,2.3
	s7.8-0.8,9.6-2.3c1.8-1.5,2.8-4.6,2.8-8.7v-13.6h-9.2l-4.6,3h7.3v11.6c0.2,2.2-0.3,4.5-1.4,6.5c-2.6,2.3-6.5,2.3-9,0
	c-1.1-2-1.5-4.3-1.3-6.5V96.4c-0.2-2.2,0.3-4.5,1.4-6.4c1.1-1.3,2.8-2,4.4-1.8c1.7-0.2,3.4,0.5,4.6,1.8c1.1,2,1.6,4.2,1.4,6.4v20.3
	l6.5-4.4V97.3c0-4.2-0.9-7.2-2.8-8.8C255,86.9,251.7,86.2,247.1,86.2z"/>
<path class="st0" d="M284.2,86.2c-4.6,0-7.7,0.8-9.5,2.4c-1.9,1.6-2.8,4.6-2.8,8.8v40.1c0,4.2,0.9,7.2,2.8,8.7s5,2.3,9.5,2.3
	s7.8-0.8,9.6-2.3c1.9-1.5,2.8-4.6,2.8-8.7V97.3c0-4.2-0.9-7.2-2.8-8.8C292,86.9,288.8,86.2,284.2,86.2z M290.1,138.5
	c0.2,2.2-0.3,4.5-1.4,6.5c-2.6,2.3-6.4,2.3-9,0c-1.1-2-1.5-4.3-1.3-6.5v-42c-0.2-2.2,0.3-4.5,1.3-6.4c2.5-2.4,6.5-2.4,9,0
	c1.1,2,1.6,4.2,1.4,6.4L290.1,138.5z"/>
<path class="st0" d="M321.3,86.2c-4.6,0-7.7,0.8-9.5,2.4c-1.8,1.6-2.8,4.6-2.8,8.8v39.9c0,4.2,0.9,7.2,2.8,8.8
	c1.9,1.6,5,2.3,9.5,2.3s7.8-0.8,9.6-2.3c1.9-1.5,2.8-4.6,2.8-8.8v-40c0-4.2-0.9-7.2-2.8-8.8C329,86.9,325.9,86.2,321.3,86.2z
	 M327.2,138.3c0.2,2.2-0.3,4.5-1.4,6.5c-2.6,2.2-6.4,2.2-9,0c-1.1-2-1.5-4.3-1.3-6.5V96.4c-0.2-2.2,0.3-4.5,1.4-6.4
	c1.1-1.3,2.8-2,4.4-1.8c1.7-0.2,3.4,0.5,4.6,1.8c1.1,2,1.6,4.2,1.4,6.4L327.2,138.3z"/>
<path class="st0" d="M368,89.5c-1.9-1.5-5.3-2.3-10.3-2.3h-11.7v61.2h11.7c4.9,0,8.3-0.7,10.2-2.3c1.9-1.6,2.8-4.4,2.8-8.9v-39
	C370.8,93.9,369.8,90.9,368,89.5z M364.3,138.5c0.2,2.2-0.3,4.5-1.6,6.3c-1.6,1.3-3.7,1.9-5.7,1.7h-4.3V89.1h4.2
	c2.1-0.2,4.2,0.4,5.9,1.7c1.3,1.9,1.9,4.1,1.6,6.4V138.5z"/>
<path class="st0" d="M403.4,86.3h-11.1v62.3l6.2-4v-24h4.9c4.7,0,7.9-0.7,9.7-2.1c1.8-1.4,2.7-4.1,2.7-8.2V96.7
	c0-4.2-0.9-6.9-2.6-8.3C411.3,86.9,408.1,86.3,403.4,86.3z M409.5,111.1c0.2,2.1-0.3,4.2-1.5,5.9c-1.5,1.2-3.5,1.8-5.4,1.6h-4.1
	V88.2h3.9c2-0.2,4,0.4,5.6,1.6c1.2,1.8,1.8,3.9,1.5,6.1L409.5,111.1z"/>
<polygon class="st0" points="432.2,145.7 432.2,119.2 442.2,119.2 440.1,116.4 432.2,116.4 432.2,89.1 440.3,89.1 442.9,86.3 
	426,86.3 426,148.5 443.6,148.5 441,145.7 "/>
<path class="st0" d="M463.4,86.1c-3.2-0.3-6.4,0.5-9,2.3c-1.8,1.5-2.6,6.3-2.6,10.3V138c0,4,0.9,6.9,2.6,8.3c2.7,1.8,5.9,2.6,9,2.3
	c3.2,0.3,6.5-0.5,9.2-2.3c1.7-1.5,2.6-4.3,2.6-8.3V96.7c0-4-0.9-6.9-2.6-8.3C469.8,86.6,466.6,85.8,463.4,86.1z M468.9,138.8
	c0.2,2.1-0.2,4.3-1.3,6.1c-2.4,2.2-6.1,2.2-8.5,0c-1-1.9-1.4-4.1-1.2-6.2V95.7c-0.2-2.1,0.3-4.2,1.3-6.1c1-1.2,2.6-1.8,4.2-1.7
	c1.6-0.2,3.2,0.5,4.3,1.7c1,1.9,1.5,4,1.3,6.1L468.9,138.8z"/>
<path class="st0" d="M497.9,86.3h-11.1v62.3h6.2v-28h4.9c4.7,0,7.9-0.7,9.7-2.1c1.8-1.4,2.7-4.1,2.7-8.2V96.7c0-4.1-0.9-6.9-2.6-8.3
	C505.8,86.9,502.7,86.3,497.9,86.3z M504.1,111.1c0.2,2.1-0.3,4.2-1.6,5.9c-1.5,1.2-3.5,1.8-5.4,1.6h-4.1V88.2h3.9
	c2-0.2,4,0.4,5.6,1.6c1.2,1.8,1.8,3.9,1.6,6.1V111.1z"/>
<polygon class="st0" points="526.7,145.7 526.7,86.4 520.6,92 520.6,148.5 538.1,148.5 535,145.7 "/>
<polygon class="st0" points="560.9,145.7 551.6,145.7 551.6,119.2 561.6,119.2 561.6,116.4 551.6,116.4 551.6,89.1 560,89.1 
	562.4,86.3 545.5,86.3 545.5,148.5 563,148.5 "/>
<polygon class="st0" points="393.2,125.5 393.8,125.5 393.8,123.7 394.2,123.7 394.2,123.3 392.8,123.3 392.8,123.7 393.2,123.7 "/>
<polygon class="st0" points="395.3,123.8 396,125.5 396.4,125.5 397.1,123.8 397.1,125.5 397.6,125.5 397.6,123.3 396.9,123.3 
	396.2,125 395.5,123.3 394.8,123.3 394.8,125.5 395.3,125.5 "/>
</svg>
